<?xml version="1.0" encoding="utf-8"?>
<!-- Generator: Adobe Illustrator 19.0.0, SVG Export Plug-In . SVG Version: 6.00 Build 0)  -->
<svg version="1.1"
	 id="svg8" inkscape:version="0.92.4 (5da689c313, 2019-01-14)" sodipodi:docname="henVR.svg" xmlns:inkscape="http://www.inkscape.org/namespaces/inkscape" xmlns:dc="http://purl.org/dc/elements/1.1/" xmlns:rdf="http://www.w3.org/1999/02/22-rdf-syntax-ns#" xmlns:cc="http://creativecommons.org/ns#" xmlns:sodipodi="http://sodipodi.sourceforge.net/DTD/sodipodi-0.dtd" xmlns:svg="http://www.w3.org/2000/svg"
	 xmlns="http://www.w3.org/2000/svg" xmlns:xlink="http://www.w3.org/1999/xlink" x="0px" y="0px" viewBox="-347 148 265 265"
	 style="enable-background:new -347 148 265 265;" xml:space="preserve">
<style type="text/css">
	.st0{fill:#FFFFFF;}
</style>
<g>
	<path class="st0" d="M-201,187.6l-12.5,62h-20.8L-201,187.6z"/>
	<path class="st0" d="M-203.3,313.7l-50.2,59.7l31.6-59.7H-203.3z"/>
	<path class="st0" d="M-200.9,300c0-5.3,4.3-9.6,9.6-9.6s9.6,4.3,9.6,9.6c0,5.3-4.3,9.6-9.6,9.6C-196.7,309.6-200.9,305.3-200.9,300
		z M-160.6,266.5c0-2.8-2.3-5.1-5-5.1c-2.8,0-5.1,2.3-5.1,5.1c0,2.8,2.3,5.1,5.1,5.1C-162.9,271.5-160.6,269.3-160.6,266.5z
		 M-160.6,288.9c0-2.8-2.3-5.1-5-5c-2.8,0-5.1,2.3-5.1,5c0,2.8,2.3,5.1,5.1,5.1C-162.9,293.9-160.6,291.6-160.6,288.9z
		 M-154.5,282.7c2.8,0,5.1-2.3,5.1-5.1c0-2.8-2.3-5.1-5.1-5.1s-5.1,2.3-5.1,5.1C-159.6,280.5-157.3,282.7-154.5,282.7z
		 M-176.9,282.7c2.8,0,5.1-2.3,5.1-5.1c0-2.8-2.3-5.1-5.1-5.1s-5.1,2.3-5.1,5.1C-181.9,280.5-179.7,282.7-176.9,282.7z
		 M-188.3,254.5c0-1-0.8-1.9-1.9-1.9h-24.3h-24.3c-1,0-1.9,0.8-1.9,1.9v26.1c0,1,0.8,1.9,1.9,1.9h24.3l0,0h24.3c1,0,1.9-0.8,1.9-1.9
		V254.5L-188.3,254.5z M-228.1,300c0-5.3-4.3-9.6-9.6-9.6s-9.6,4.3-9.6,9.6c0,5.3,4.3,9.6,9.6,9.6
		C-232.3,309.6-228.1,305.3-228.1,300z M-150.3,345.9c-10.7,1.9-20.9-5.3-22.8-16l-2.5-14.2c-0.6-2.6-2.8-4.6-5.5-4.9
		c-2.7,2.6-6.3,4.1-10.3,4.1s-7.7-1.6-10.3-4.2h-12.8l0,0h-12.8c-2.7,2.6-6.3,4.2-10.3,4.2s-7.6-1.6-10.3-4.1
		c-2.7,0.2-4.9,2.3-5.5,4.9l-2.5,14.2c-1.9,10.7-12.1,17.9-22.8,16c-10.7-1.9-17.9-12.1-16-22.8l3.6-20.2c0.1-0.6,0.2-1.2,0.4-1.7
		c0.9-6.2,7.4-29.8,9.8-37.2c0.9-2.7,2.2-4.7,3.8-6.1l0,0c1.5-1.4,2.5-3.3,2.9-5.4l0,0c0.3-1,1.2-1.7,2.2-1.7h21.6
		c1,0,1.8,0.6,2.2,1.5l0,0c0.4,1.3,1.7,2.3,3.2,2.3h0.1h1.8v26c0,2.4,1.9,4.3,4.3,4.3h22h2.3h24.3c2.4,0,4.3-1.9,4.3-4.3v-26h1.8
		h0.1c1.5,0,2.7-1,3.2-2.3l0,0c0.3-0.9,1.2-1.5,2.2-1.5h21.6c1.1,0,2,0.7,2.2,1.7l0,0c0.4,2.1,1.5,4,2.9,5.4l0,0
		c1.6,1.4,2.9,3.4,3.8,6.1c2.4,7.4,8.9,31,9.8,37.2c0.2,0.6,0.3,1.1,0.4,1.7l3.6,20.2C-132.4,333.8-139.6,344-150.3,345.9
		L-150.3,345.9z M-184.5,261.9c0,1.3,1.1,2.4,2.4,2.4c1.3,0,2.4-1.1,2.4-2.4v-3.5c0-1.3-1.1-2.4-2.4-2.4c-1.3,0-2.4,1.1-2.4,2.4
		V261.9z M-249.3,261.9c0,1.3,1.1,2.4,2.4,2.4c1.3,0,2.4-1.1,2.4-2.4v-3.5c0-1.3-1.1-2.4-2.4-2.4c-1.3,0-2.4,1.1-2.4,2.4V261.9
		L-249.3,261.9z M-244.7,277.7c0-10.3-8.4-18.7-18.7-18.7c-10.3,0-18.7,8.4-18.7,18.7c0,10.3,8.4,18.7,18.7,18.7
		C-253.1,296.4-244.7,288-244.7,277.7z M-226.1,300c0-6.3-5.1-11.5-11.5-11.5c-6.3,0-11.5,5.1-11.5,11.5c0,6.3,5.1,11.5,11.5,11.5
		C-231.3,311.5-226.1,306.4-226.1,300z M-210.3,300.1c0-2.3-1.9-4.2-4.2-4.2l0,0c-2.3,0-4.2,1.9-4.2,4.2s1.9,4.2,4.2,4.2
		S-210.3,302.4-210.3,300.1L-210.3,300.1z M-179.9,300c0-6.3-5.1-11.5-11.5-11.5c-6.3,0-11.5,5.1-11.5,11.5
		c0,6.3,5.1,11.5,11.5,11.5S-179.9,306.4-179.9,300z M-147,277.7c0-10.3-8.4-18.7-18.7-18.7s-18.7,8.4-18.7,18.7
		c0,10.3,8.4,18.7,18.7,18.7S-147,288-147,277.7z M-260.8,264.7h-5.3c-1,0-1.8,0.8-1.8,1.8v4.9c0,0.5,0.2,0.9,0.5,1.2l0.1,0.1
		l2.6,2.6c0.7,0.7,1.8,0.7,2.5,0l2.6-2.6l0.1-0.1c0.3-0.3,0.5-0.7,0.5-1.2v-4.9C-259,265.5-259.8,264.7-260.8,264.7L-260.8,264.7z
		 M-266.1,290.7h5.3c1,0,1.8-0.8,1.8-1.8V284c0-0.5-0.2-0.9-0.5-1.2l-0.1-0.1l-2.6-2.6c-0.7-0.7-1.8-0.7-2.5,0l-2.6,2.6l-0.1,0.1
		c-0.3,0.3-0.5,0.7-0.5,1.2v4.9C-267.8,289.9-267,290.7-266.1,290.7L-266.1,290.7z M-250.4,280.3V275c0-1-0.8-1.8-1.8-1.8h-4.9
		c-0.5,0-0.9,0.2-1.2,0.5l-0.1,0.1l-2.6,2.6c-0.7,0.7-0.7,1.8,0,2.5l2.6,2.6l0.1,0.1c0.3,0.3,0.7,0.5,1.2,0.5h4.9
		C-251.2,282.1-250.4,281.3-250.4,280.3L-250.4,280.3z M-276.4,275v5.3c0,1,0.8,1.8,1.8,1.8h4.9c0.5,0,0.9-0.2,1.2-0.5l0.1-0.1
		l2.6-2.6c0.7-0.7,0.7-1.8,0-2.5l-2.6-2.6l-0.1-0.1c-0.3-0.3-0.7-0.5-1.2-0.5h-2.9h-2C-275.6,273.3-276.4,274.1-276.4,275
		L-276.4,275z M-156.7,248.7c0-0.5-0.2-0.9-0.4-1.2c-0.4-0.2-0.9-0.5-1.5-0.7c-2.3-0.9-5.5-1.4-9-1.4c-3.6,0-6.8,0.6-9,1.4
		c-0.5,0.2-1,0.4-1.5,0.7c-0.3,0.3-0.4,0.7-0.4,1.2v0.6h21.9L-156.7,248.7z M-250.4,248.7c0-0.5-0.2-0.9-0.4-1.2
		c-0.4-0.2-0.9-0.5-1.5-0.7c-2.3-0.9-5.5-1.4-9-1.4c-3.6,0-6.8,0.6-9,1.4c-0.5,0.2-1,0.4-1.5,0.7c-0.3,0.3-0.4,0.7-0.4,1.2v0.6h21.9
		L-250.4,248.7z"/>
</g>
</svg>
