<?xml version="1.0" encoding="utf-8"?>
<!-- Generator: Adobe Illustrator 19.0.0, SVG Export Plug-In . SVG Version: 6.00 Build 0)  -->
<svg version="1.1"
	 id="svg8" xmlns:cc="http://creativecommons.org/ns#" xmlns:dc="http://purl.org/dc/elements/1.1/" xmlns:inkscape="http://www.inkscape.org/namespaces/inkscape" xmlns:sodipodi="http://sodipodi.sourceforge.net/DTD/sodipodi-0.dtd" xmlns:svg="http://www.w3.org/2000/svg" xmlns:rdf="http://www.w3.org/1999/02/22-rdf-syntax-ns#" sodipodi:docname="henVR.svg" inkscape:version="0.92.4 (5da689c313, 2019-01-14)"
	 xmlns="http://www.w3.org/2000/svg" xmlns:xlink="http://www.w3.org/1999/xlink" x="0px" y="0px" width="265px" height="265px"
	 viewBox="-347 148 265 265" style="enable-background:new -347 148 265 265;" xml:space="preserve">
<style type="text/css">
	.st0{fill:#FFFFFF;}
</style>
<g id="layer1" transform="translate(-57.578373,-59.000992)" inkscape:label="Layer 1" inkscape:groupmode="layer">
	<path id="path21" inkscape:connector-curvature="0" class="st0" d="M-160.9,366.9c-1.7-0.5-19.2-1-39-1.2l-36-0.3V308v-57.5
		l5.8-0.5c3.2-0.3,6.5-0.1,7.3,0.4c1,0.5,2,0.4,2.7-0.2c2.1-2.1,9.9-1.1,22.5,2.8c7,2.2,18.6,5.8,25.9,8l13.2,4.1v15.5V296l4.3,0
		c4.7,0,13,2,16.7,4c3.6,1.9,11.1,9.1,13.6,13.2c10.2,16.2,4.8,38.8-11.8,49.5C-142.6,367.1-153.9,369-160.9,366.9L-160.9,366.9z
		 M-226.4,330v-32h-3h-3v32v32h3h3V330z M-220.4,331c0-20-0.4-31-1-31c-0.6,0-1,11-1,31s0.4,31,1,31C-220.8,362-220.4,351-220.4,331
		z M-211.4,330v-32h-3h-3v32v32h3h3V330z M-177.4,360.6c0-0.2-1.4-1.9-3-3.8c-5.7-6.2-8.4-13.3-8.8-23c-0.4-10.2,1.2-16.1,6.4-23.4
		c1.9-2.6,3.2-5,3-5.2c-0.3-0.3-24.7-5.1-26.3-5.2c-0.1,0-0.2,13.7-0.2,30.5V361h14.5C-183.9,361-177.4,360.8-177.4,360.6
		L-177.4,360.6z M-141.8,358.2c6.2-3.2,9.6-6.5,12.9-12.3c2.6-4.7,3-6.3,3-13.8c0-7.5-0.3-9.1-3-13.8c-5.5-10-13.3-14.6-24.5-14.6
		c-11.2,0-20,5.3-25,15.1c-3.5,6.9-3.6,19.8-0.1,26.4c3.9,7.5,9.9,12.6,17.3,14.9C-156.3,361.4-146.5,360.6-141.8,358.2
		L-141.8,358.2z M-165.2,348.8c-0.8-0.8-1.2-4.8-1.2-11.5c0-8.5,0.3-10.3,1.5-10.3c1.1,0,1.5-1.1,1.5-3.6c0-6.7,4.1-11.4,10-11.4
		c1.9,0,4.5,0.6,5.6,1.4c3.8,2.7,5.6,10.5,2.4,10.5c-0.6,0-1.7-1.5-2.4-3.4c-3.2-7.8-11.6-4.9-11.6,3.9c0,2.3,0.2,2.4,9.7,2.7
		l9.8,0.3l0.3,8.9c0.4,13.2,0,13.6-13.6,13.6C-160.3,350-164.4,349.6-165.2,348.8L-165.2,348.8z M-151.8,334.3
		c-0.3-0.3-1.2-0.2-2.1,0.1c-1.2,0.5-1.4,1.4-0.9,4.4c1.1,5.9,1.8,6.2,2.7,0.9C-151.7,336.9-151.6,334.5-151.8,334.3L-151.8,334.3z
		 M-167.7,297.8l5.3-2.2l-0.3-13.5l-0.3-13.5l-16.5-5.2c-9.1-2.8-18.9-5.9-21.8-6.7l-5.2-1.6v19.4c0,10.7,0.1,19.5,0.2,19.5
		c3.2,0.7,30.7,5.7,31.7,5.8C-173.6,299.9-170.6,299-167.7,297.8L-167.7,297.8z M-220.4,275.5c0-13.7-0.4-21.5-1-21.5s-1,7.8-1,21.5
		c0,13.7,0.4,21.5,1,21.5S-220.4,289.2-220.4,275.5z M-226.4,274v-21h-3h-3v21v21h3h3V274z M-211.4,274v-21h-3h-3v21v21h3h3V274z
		 M-124.5,369.7c-1.7,0.9-3.1,2.2-3.9,3.9l-0.9,1.8l-0.9-1.8c-0.9-1.7-2.2-3.1-3.9-3.9l-1.8-0.9l1.8-0.9c1.7-0.8,3.1-2.2,3.9-3.9
		l0.9-1.8l0.9,1.8c0.8,1.7,2.2,3.1,3.9,3.9l1.8,0.9L-124.5,369.7z M-83.4,376.5c-1.5,0.7-2.7,1.9-3.4,3.4l-0.5,1l-0.5-1
		c-0.7-1.5-1.9-2.7-3.4-3.4l-1-0.5l1-0.5c1.5-0.7,2.7-1.9,3.4-3.4l0.5-1l0.5,1c0.7,1.5,1.9,2.7,3.4,3.4l1,0.5L-83.4,376.5z
		 M-154.9,389c1.5-0.7,2.7-1.9,3.4-3.4l0.5-1l0.5,1c0.7,1.5,1.9,2.7,3.4,3.4l1,0.5l-1,0.5c-1.5,0.7-2.7,1.9-3.4,3.4l-0.5,1l-0.5-1
		c-0.7-1.5-1.9-2.7-3.4-3.4l-1-0.5L-154.9,389z M-82.3,404.3l-19.6,14H-112l2.2-1.8h3.2c0.2,0,0.3,0,0.5-0.1c0,0,0.1,0,0.1-0.1
		c0.1,0,0.2-0.1,0.3-0.2c0,0,0,0,0.1,0l16.7-11.9H-82.3z M-131.1,416.5h7.1l-2.5,1.8h-9.7l2.5-1.8H-131.1z M-134.1,404.8l0.8-0.5
		l0,0h3.9l-2,5.9L-134.1,404.8z M-128.6,413l2.3-7h13.4l3.5,7H-128.6z M-84.3,396.7l-21.6,15.4l-3.7-7.3l21.6-15.4L-84.3,396.7z
		 M-92.8,388.5l-19.6,14h-5.2l19.6-14H-92.8z M-98.3,384.5l-21.6,15.4l-3.7-7.3l21.6-15.4L-98.3,384.5z M-116.5,376.3h9.7l-19.6,14
		h-9.7L-116.5,376.3z M-140.3,393.8h13.4l3.5,7h-19.2L-140.3,393.8z M-150.8,406h13.4l3.5,7h-19.2L-150.8,406z M-157,415.7
		C-157,415.7-157,415.8-157,415.7c0.4,0.5,0.9,0.8,1.5,0.8h7.1l-2.5,1.8h-9.7L-157,415.7z M-167.1,428.8l2.3-7h13.4l3.5,7H-167.1z
		 M-143.2,419.4C-143.2,419.4-143.2,419.5-143.2,419.4l-2.2,6.5l-2.7-5.4l5.2-3.7c0.1-0.1,0.2-0.2,0.3-0.4h2.9l-2.9,2.1
		c-0.1,0.1-0.3,0.2-0.4,0.4C-143.1,419.1-143.2,419.3-143.2,419.4z M-142.6,428.8l2.3-7h13.4l3.5,7H-142.6z M-118.3,418.8
		c-0.1,0.1-0.1,0.1-0.2,0.2c-0.1,0.1-0.1,0.2-0.1,0.3c0,0.1-0.1,0.1-0.1,0.2l-2.2,6.5l-2.7-5.4l3.7-2.6l2-1.4h2.5l-2.7,2.1
		C-118.2,418.7-118.2,418.7-118.3,418.8z M-118.1,428.8l2.3-7h13.4l3.5,7H-118.1z M-95.4,427.9l-3.7-7.3l21.6-15.4l3.7,7.3
		L-95.4,427.9z"/>
</g>
</svg>
