<?xml version="1.0" encoding="utf-8"?>
<!-- Generator: Adobe Illustrator 19.0.0, SVG Export Plug-In . SVG Version: 6.00 Build 0)  -->
<svg version="1.1"
	 id="svg8" xmlns:dc="http://purl.org/dc/elements/1.1/" xmlns:cc="http://creativecommons.org/ns#" xmlns:rdf="http://www.w3.org/1999/02/22-rdf-syntax-ns#" xmlns:svg="http://www.w3.org/2000/svg" xmlns:sodipodi="http://sodipodi.sourceforge.net/DTD/sodipodi-0.dtd" xmlns:inkscape="http://www.inkscape.org/namespaces/inkscape" inkscape:version="0.92.4 (5da689c313, 2019-01-14)" sodipodi:docname="henVR.svg"
	 xmlns="http://www.w3.org/2000/svg" xmlns:xlink="http://www.w3.org/1999/xlink" x="0px" y="0px" viewBox="-347 148 265 265"
	 style="enable-background:new -347 148 265 265;" xml:space="preserve">
<style type="text/css">
	.st0{fill:#FFFFFF;}
</style>
<path class="st0" d="M-206.8,278.7c-0.2-0.4-0.5-0.7-0.9-0.8l-6.5-3.2c0.7-2.8,1-5.9,1-9c0-0.9-0.1-1.7-0.1-2.6l6.8-3
	c0.6-0.2,1-0.7,1.2-1.3l4.3-11.8c0.4-1.1-0.2-2.4-1.3-2.8c-1.1-0.4-2.4,0.2-2.8,1.3l-3.9,10.9l-4.7,2.1c-0.4-2.2-1-4.3-1.7-6.3h-34
	c-0.7,2-1.3,4.1-1.7,6.3l-4.7-2.1l-3.9-10.9c-0.4-1.1-1.7-1.7-2.8-1.3c-1.1,0.4-1.7,1.7-1.3,2.8l4.3,11.8c0.2,0.6,0.6,1,1.2,1.3
	l6.8,3c-0.1,0.8-0.1,1.7-0.1,2.6c0,3.2,0.4,6.2,1,9l-6.5,3.2c-0.4,0.2-0.7,0.5-0.9,0.8l-7.1,11.8c-0.6,1-0.3,2.4,0.8,3
	c0.4,0.2,0.7,0.3,1.1,0.3c0.7,0,1.5-0.4,1.9-1.1l6.8-11.3l5.2-2.6c3.3,8.8,9.7,14.8,17,14.8c7.4,0,13.8-6,17-14.8l5.2,2.6l6.8,11.3
	c0.4,0.7,1.1,1.1,1.9,1.1c0.4,0,0.8-0.1,1.1-0.3c1-0.6,1.4-2,0.8-3L-206.8,278.7z M-249.6,228.3c0.1,0,4.7,2.4,7.8,8
	c-2.5,3.2-4.1,7.4-4.1,11.5h26.9c0-4-1.6-8.3-4.1-11.5c3-5.6,7.7-8,7.8-8c1.1-0.5,1.5-1.8,1-2.9c-0.5-1.1-1.8-1.5-2.9-1
	c-0.3,0.1-5.4,2.7-9.1,8.9c-1.8-1.3-3.9-2-6.1-2c-2.2,0-4.2,0.8-6.1,2c-3.7-6.1-8.8-8.7-9.1-8.9c-1.1-0.5-2.4-0.1-2.9,1
	C-251.1,226.4-250.7,227.7-249.6,228.3z M-131.6,344.6l-44.3-44.3c7.4-11.1,11.4-24.1,11.4-37.7c0-18.2-7.1-35.2-19.9-48.1
	c-12.8-12.8-29.9-19.9-48.1-19.9c-18.2,0-35.2,7.1-48.1,19.9c-12.8,12.8-19.9,29.9-19.9,48.1s7.1,35.2,19.9,48.1
	c12.8,12.8,29.9,19.9,48.1,19.9c13.6,0,26.7-4,37.7-11.4l44.3,44.3c4,4,10.5,4,14.6,0l4.3-4.3C-127.5,355.1-127.5,348.6-131.6,344.6
	z M-269.1,299.2c-9.8-9.8-15.2-22.8-15.2-36.6c0-13.8,5.4-26.8,15.2-36.6c9.8-9.8,22.8-15.2,36.6-15.2c13.8,0,26.8,5.4,36.6,15.2
	c9.8,9.8,15.2,22.8,15.2,36.6c0,13.8-5.4,26.8-15.2,36.6c-9.8,9.8-22.8,15.2-36.6,15.2C-246.3,314.3-259.3,309-269.1,299.2z"/>
</svg>
