<?xml version="1.0" encoding="utf-8"?>
<!-- Generator: Adobe Illustrator 19.0.0, SVG Export Plug-In . SVG Version: 6.00 Build 0)  -->
<svg version="1.1"
	 id="svg8" xmlns:dc="http://purl.org/dc/elements/1.1/" xmlns:cc="http://creativecommons.org/ns#" xmlns:rdf="http://www.w3.org/1999/02/22-rdf-syntax-ns#" xmlns:svg="http://www.w3.org/2000/svg" xmlns:sodipodi="http://sodipodi.sourceforge.net/DTD/sodipodi-0.dtd" xmlns:inkscape="http://www.inkscape.org/namespaces/inkscape" inkscape:version="0.92.4 (5da689c313, 2019-01-14)" sodipodi:docname="henVR.svg"
	 xmlns="http://www.w3.org/2000/svg" xmlns:xlink="http://www.w3.org/1999/xlink" x="0px" y="0px" viewBox="-347 148 265 265"
	 style="enable-background:new -347 148 265 265;" xml:space="preserve">
<style type="text/css">
	.st0{fill:#FFFFFF;}
</style>
<path class="st0" d="M-228.9,302.8c0,0.1,0,0.3,0,0.4c-0.1,0-0.3-0.1-0.4-0.2l-4.3-2.5c-1.7-1.2-2.8-3.1-3-5.1v-14.7
	c0-0.1,0-0.3,0-0.4c0.1,0,0.3,0.1,0.4,0.2l4.3,2.5c1.7,1.2,2.8,3.1,3,5.1V302.8z M-223.7,294v-5.9c-0.2-3.9-2.2-7.5-5.6-9.6
	l-4.3-2.5c-2.3-1.7-5.5-1.2-7.2,1.1c-0.7,1-1.1,2.3-1,3.5v2.9l-16.5-9.5l-33.9-19.6v-43l118.6,68.5v43l-14.3-8.3L-223.7,294z
	 M-137,305l-31.2,18.1v-43L-137,262V305z M-168.2,329l31.2-18.1V354l-31.2,18V329z M-200.7,233.6l-42.7-24.6
	c-1.2-0.7-2.8-0.3-3.5,0.9c-0.2,0.4-0.3,0.8-0.3,1.3v7.8l-3.4-2V201l54.6,31.5v16.1l-3.4-2v-10.8
	C-199.4,234.9-199.9,234.1-200.7,233.6z M-238.7,217.6l-3.4,1.7v-3.6L-238.7,217.6z M-247.8,196.7l8.5-4.3l54.4,31.4l-8.5,4.3
	L-247.8,196.7z M-190.9,232.6l8.9-4.4v16.3l-8.9,4.4V232.6z M-254.4,194.2C-254.4,194.2-254.4,194.2-254.4,194.2
	c-0.1,0.1-0.1,0.1-0.1,0.1c-0.2,0.1-0.4,0.3-0.6,0.5c-0.1,0.1-0.1,0.1-0.2,0.2c-0.1,0.2-0.2,0.4-0.3,0.6c0,0.1-0.1,0.1-0.1,0.2
	c-0.1,0.2-0.1,0.5-0.1,0.7v22c0,0.9,0.5,1.8,1.3,2.2l8.5,4.9c0.1,0.1,0.3,0.1,0.4,0.2c0.1,0,0.1,0.1,0.2,0.1
	c0.2,0.1,0.4,0.1,0.7,0.1l0,0c0.2,0,0.4,0,0.6-0.1c0.1,0,0.1,0,0.2-0.1c0.1,0,0.2-0.1,0.3-0.1l10.1-5.1l28.8,16.6v10.8
	c0,0.9,0.5,1.8,1.3,2.2l8.5,4.9l0.1,0h0c0.5,0.3,1.1,0.4,1.7,0.3c0.1,0,0.3-0.1,0.4-0.1c0.1,0,0.2-0.1,0.3-0.1l14-7
	c0.1-0.1,0.2-0.1,0.3-0.2c0.3-0.2,0.6-0.4,0.7-0.7c0.1-0.1,0.2-0.3,0.2-0.4c0.1-0.2,0.1-0.4,0.1-0.5c0-0.1,0.1-0.2,0.1-0.4V236
	l37.3,21.5l-31.2,18.1l-118.6-68.5l31.2-18.1l6.6,3.8L-254.4,194.2z M-292,303.5v-43l16.5,9.5l33.9,19.6v5.9
	c0.2,3.9,2.2,7.5,5.6,9.6l4.3,2.5c0.5,0.3,1,0.5,1.5,0.7c0.2,0,0.3,0.1,0.5,0.1c0.3,0.1,0.7,0.1,1,0.2c0,0,0.1,0,0.1,0
	c0.2,0,0.5,0,0.7-0.1c0.2,0,0.3,0,0.5-0.1c0.4-0.1,0.8-0.3,1.2-0.5c1.7-1.1,2.7-3,2.5-5v-2.9l14.3,8.3l36,20.8v43L-292,303.5z"/>
</svg>
